{
  "source": "C:\\Users\\Peter\\Desktop\\stuff\\MIUN\\quantitative_research\\video_compression\\videos\\BVI-HD\\BVI-HD_CDVL_videos\\ORIG\\CloudsZoom_1920x1080_60fps.mp4",
  "output": "C:\\Users\\Peter\\Desktop\\stuff\\MIUN\\quantitative_research\\video_compression\\compressed_videos\\BVI-HD\\av1\\1\\CloudsZoom_1920x1080_60fps_av1.mkv",
  "codec": "av1",
  "ok": "Input #0, mov,mp4,m4a,3gp,3g2,mj2, from 'C:\\Users\\Peter\\Desktop\\stuff\\MIUN\\quantitative_research\\video_compression\\videos\\BVI-HD\\BVI-HD_CDVL_videos\\ORIG\\CloudsZoom_1920x1080_60fps.mp4':\n  Metadata:\n    major_brand     : isom\n    minor_version   : 512\n    compatible_brands: isomiso2avc1mp41\n    encoder         : Lavf54.28.101\n  Duration: 00:00:05.00, start: 0.000000, bitrate: 32589 kb/s\n  Stream #0:0[0x1](und): Video: h264 (High 4:4:4 Predictive) (avc1 / 0x31637661), yuv420p(progressive), 1920x1080, 32586 kb/s, 60 fps, 60 tbr, 60 tbn (default)\n    Metadata:\n      handler_name    : VideoHandler\n      vendor_id       : [0][0][0][0]\n[out#0/matroska @ 000001a31bcc90c0] Codec AVOption b:a (set bitrate (in bits/s)) has not been used for any stream. The most likely reason is either wrong type (e.g. a video option with no video streams) or that it is a private option of some decoder which was not actually used for any stream.\nStream mapping:\n  Stream #0:0 -> #0:0 (h264 (native) -> av1 (libsvtav1))\nPress [q] to stop, [?] for help\nSvt[info]: -------------------------------------------\nSvt[info]: SVT [version]:\tSVT-AV1 Encoder Lib v3.1.0-19-g6ecfe8ec\nSvt[info]: SVT [build]  :\tGCC 15.2.0\t 64 bit\nSvt[info]: LIB Build date: Aug 17 2025 11:37:13\nSvt[info]: -------------------------------------------\nSvt[info]: Level of Parallelism: 5\nSvt[info]: Number of PPCS 93\nSvt[info]: [asm level on system : up to avx2]\nSvt[info]: [asm level selected : up to avx2]\nSvt[info]: -------------------------------------------\nSvt[info]: SVT [config]: main profile\ttier (auto)\tlevel (auto)\nSvt[info]: SVT [config]: width / height / fps numerator / fps denominator \t\t: 1920 / 1080 / 60 / 1\nSvt[info]: SVT [config]: bit-depth / color format \t\t\t\t\t: 8 / YUV420\nSvt[info]: SVT [config]: preset / tune / pred struct \t\t\t\t\t: 4 / PSNR / random access\nSvt[info]: SVT [config]: gop size / mini-gop size / key-frame type \t\t\t: 321 / 16 / key frame\nSvt[info]: SVT [config]: BRC mode / target bitrate (kbps)\t\t\t\t: VBR / 1000 \nSvt[info]: SVT [config]: AQ mode / Variance Boost \t\t\t\t\t: 2 / 0\nSvt[info]: SVT [config]: sharpness / luminance-based QP bias \t\t\t\t: 0 / 0\nSvt[info]: SVT [config]: QP scale compress strength \t\t\t\t\t: 0\nSvt[info]: -------------------------------------------\nOutput #0, matroska, to 'C:\\Users\\Peter\\Desktop\\stuff\\MIUN\\quantitative_research\\video_compression\\compressed_videos\\BVI-HD\\av1\\1\\CloudsZoom_1920x1080_60fps_av1.mkv':\n  Metadata:\n    major_brand     : isom\n    minor_version   : 512\n    compatible_brands: isomiso2avc1mp41\n    encoder         : Lavf62.3.100\n  Stream #0:0(und): Video: av1 (AV01 / 0x31305641), yuv420p(tv, progressive), 1920x1080, q=2-31, 1000 kb/s, 60 fps, 1k tbn (default)\n    Metadata:\n      encoder         : Lavc62.11.100 libsvtav1\n      handler_name    : VideoHandler\n      vendor_id       : [0][0][0][0]\n    Side data:\n      cpb: bitrate max/min/avg: 0/0/1000000 buffer size: 1000000 vbv_delay: N/A\nframe=    0 fps=0.0 q=0.0 size=       0KiB time=N/A bitrate=N/A speed=N/A elapsed=0:00:00.51    \nframe=    0 fps=0.0 q=0.0 size=       0KiB time=N/A bitrate=N/A speed=N/A elapsed=0:00:01.04    \nframe=    0 fps=0.0 q=0.0 size=       0KiB time=N/A bitrate=N/A speed=N/A elapsed=0:00:01.56    \nframe=    0 fps=0.0 q=0.0 size=       0KiB time=N/A bitrate=N/A speed=N/A elapsed=0:00:02.07    \nframe=    9 fps=3.5 q=33.0 size=       1KiB time=00:00:00.13 bitrate=  42.7kbits/s speed=0.0514x elapsed=0:00:02.59    \nframe=   22 fps=7.0 q=29.0 size=       1KiB time=00:00:00.35 bitrate=  16.3kbits/s speed=0.112x elapsed=0:00:03.12    \nframe=   32 fps=8.8 q=27.0 size=       1KiB time=00:00:00.51 bitrate=  11.0kbits/s speed=0.142x elapsed=0:00:03.65    \nframe=   43 fps= 10 q=19.0 size=       1KiB time=00:00:00.70 bitrate=   8.1kbits/s speed=0.168x elapsed=0:00:04.16    \nframe=   45 fps=9.6 q=18.0 size=       1KiB time=00:00:00.73 bitrate=   7.8kbits/s speed=0.156x elapsed=0:00:04.69    \nframe=   47 fps=9.0 q=18.0 size=       1KiB time=00:00:00.76 bitrate=   7.4kbits/s speed=0.147x elapsed=0:00:05.19    \nframe=   54 fps=9.5 q=17.0 size=       1KiB time=00:00:00.88 bitrate=   6.4kbits/s speed=0.155x elapsed=0:00:05.71    \nframe=   61 fps=9.8 q=14.0 size=       1KiB time=00:00:01.00 bitrate=   5.7kbits/s speed=0.16x elapsed=0:00:06.24    \nframe=   66 fps=9.8 q=16.0 size=       1KiB time=00:00:01.08 bitrate=   5.3kbits/s speed=0.16x elapsed=0:00:06.76    \nframe=   74 fps= 10 q=16.0 size=       1KiB time=00:00:01.21 bitrate=   4.7kbits/s speed=0.167x elapsed=0:00:07.29    \nframe=   77 fps=9.8 q=14.0 size=       1KiB time=00:00:01.26 bitrate=   4.5kbits/s speed=0.162x elapsed=0:00:07.82    \nframe=   80 fps=9.6 q=16.0 size=       1KiB time=00:00:01.31 bitrate=   4.3kbits/s speed=0.158x elapsed=0:00:08.35    \nframe=   91 fps= 10 q=16.0 size=       1KiB time=00:00:01.50 bitrate=   3.8kbits/s speed=0.169x elapsed=0:00:08.86    \nframe=   94 fps= 10 q=17.0 size=       1KiB time=00:00:01.55 bitrate=   3.7kbits/s speed=0.165x elapsed=0:00:09.38    \nframe=  101 fps= 10 q=14.0 size=       1KiB time=00:00:01.66 bitrate=   3.4kbits/s speed=0.168x elapsed=0:00:09.91    \nframe=  109 fps= 10 q=14.0 size=       1KiB time=00:00:01.80 bitrate=   3.2kbits/s speed=0.173x elapsed=0:00:10.43    \nframe=  111 fps= 10 q=16.0 size=       1KiB time=00:00:01.83 bitrate=   3.1kbits/s speed=0.167x elapsed=0:00:10.95    \nframe=  118 fps= 10 q=16.0 size=       1KiB time=00:00:01.95 bitrate=   2.9kbits/s speed=0.17x elapsed=0:00:11.46    \nframe=  125 fps= 10 q=14.0 size=       1KiB time=00:00:02.06 bitrate=   2.8kbits/s speed=0.172x elapsed=0:00:11.99    \nframe=  127 fps= 10 q=15.0 size=       1KiB time=00:00:02.10 bitrate=   2.7kbits/s speed=0.168x elapsed=0:00:12.52    \nframe=  135 fps= 10 q=16.0 size=       1KiB time=00:00:02.23 bitrate=   2.6kbits/s speed=0.171x elapsed=0:00:13.06    \nframe=  141 fps= 10 q=14.0 size=       1KiB time=00:00:02.33 bitrate=   2.4kbits/s speed=0.171x elapsed=0:00:13.60    \nframe=  144 fps= 10 q=17.0 size=       1KiB time=00:00:02.38 bitrate=   2.4kbits/s speed=0.169x elapsed=0:00:14.13    \nframe=  154 fps= 11 q=16.0 size=       1KiB time=00:00:02.55 bitrate=   2.2kbits/s speed=0.174x elapsed=0:00:14.65    \nframe=  158 fps= 10 q=16.0 size=       1KiB time=00:00:02.60 bitrate=   2.2kbits/s speed=0.171x elapsed=0:00:15.18    \nframe=  162 fps= 10 q=17.0 size=       1KiB time=00:00:02.66 bitrate=   2.1kbits/s speed=0.17x elapsed=0:00:15.71    \nframe=  170 fps= 10 q=17.0 size=       1KiB time=00:00:02.81 bitrate=   2.0kbits/s speed=0.173x elapsed=0:00:16.24    \nframe=  173 fps= 10 q=14.0 size=       1KiB time=00:00:02.86 bitrate=   2.0kbits/s speed=0.171x elapsed=0:00:16.76    \nframe=  176 fps= 10 q=17.0 size=       1KiB time=00:00:02.91 bitrate=   2.0kbits/s speed=0.169x elapsed=0:00:17.27    \nframe=  186 fps= 10 q=17.0 size=       1KiB time=00:00:03.08 bitrate=   1.8kbits/s speed=0.173x elapsed=0:00:17.79    \nframe=  190 fps= 10 q=17.0 size=       1KiB time=00:00:03.15 bitrate=   1.8kbits/s speed=0.172x elapsed=0:00:18.31    \nframe=  198 fps= 11 q=17.0 size=       1KiB time=00:00:03.28 bitrate=   1.7kbits/s speed=0.174x elapsed=0:00:18.83    \nframe=  209 fps= 11 q=5.0 size=       1KiB time=00:00:03.46 bitrate=   1.6kbits/s speed=0.179x elapsed=0:00:19.35    \nframe=  209 fps= 11 q=5.0 size=       1KiB time=00:00:03.46 bitrate=   1.6kbits/s speed=0.174x elapsed=0:00:19.87    \nframe=  217 fps= 11 q=11.0 size=       1KiB time=00:00:03.60 bitrate=   1.6kbits/s speed=0.177x elapsed=0:00:20.39    \nframe=  225 fps= 11 q=5.0 size=       1KiB time=00:00:03.73 bitrate=   1.5kbits/s speed=0.178x elapsed=0:00:20.91    \nframe=  233 fps= 11 q=12.0 size=       1KiB time=00:00:03.86 bitrate=   1.5kbits/s speed=0.18x elapsed=0:00:21.44    \nframe=  241 fps= 11 q=6.0 size=       1KiB time=00:00:04.00 bitrate=   1.4kbits/s speed=0.182x elapsed=0:00:21.96    \nframe=  241 fps= 11 q=6.0 size=       1KiB time=00:00:04.00 bitrate=   1.4kbits/s speed=0.178x elapsed=0:00:22.48    \nframe=  249 fps= 11 q=10.0 size=       1KiB time=00:00:04.13 bitrate=   1.4kbits/s speed=0.18x elapsed=0:00:23.02    \nframe=  257 fps= 11 q=3.0 size=       1KiB time=00:00:04.26 bitrate=   1.3kbits/s speed=0.181x elapsed=0:00:23.52    \nframe=  265 fps= 11 q=11.0 size=       1KiB time=00:00:04.40 bitrate=   1.3kbits/s speed=0.183x elapsed=0:00:24.04    \nframe=  273 fps= 11 q=4.0 size=       1KiB time=00:00:04.53 bitrate=   1.3kbits/s speed=0.184x elapsed=0:00:24.58    \nframe=  277 fps= 11 q=14.0 size=       1KiB time=00:00:04.60 bitrate=   1.2kbits/s speed=0.183x elapsed=0:00:25.10    \n[out#0/matroska @ 000001a31bcc90c0] video:409KiB audio:0KiB subtitle:0KiB other streams:0KiB global headers:0KiB muxing overhead: 0.495746%\nframe=  300 fps= 12 q=41.0 Lsize=     411KiB time=00:00:04.98 bitrate= 675.3kbits/s speed=0.196x elapsed=0:00:25.48    \n",
  "seconds": 25.854862451553345,
  "probe_out": {}
}